PathFileType	4	(X/Y/Z)	TVC_9_BWA2_walk_RCNL2025.trc
DataRate	CameraRate	NumFrames	NumMarkers	Units	OrigDataRate	OrigDataStartFrame	OrigNumFrames
100	100	6	27	mm	100	228	364
Frame#	Time	R_Shoulder			L_Shoulder			C7			J_Notch			R_Elbow			L_Elbow			R_Wrist			L_Wrist			R_Asis			L_Asis			R_Psis			L_Psis			Sacral			Thoracic			Sternum			R_Thigh_Lateral			R_Knee_Lateral			R_Shank_Lateral			R_Ankle_Lateral			R_Heel			R_Toe			L_Thigh_Lateral			L_Knee_Lateral			L_Shank_Lateral			L_Ankle_Lateral			L_Heel			L_Toe		
		X1	Y1	Z1	X2	Y2	Z2	X3	Y3	Z3	X4	Y4	Z4	X5	Y5	Z5	X6	Y6	Z6	X7	Y7	Z7	X8	Y8	Z8	X9	Y9	Z9	X10	Y10	Z10	X11	Y11	Z11	X12	Y12	Z12	X13	Y13	Z13	X14	Y14	Z14	X15	Y15	Z15	X16	Y16	Z16	X17	Y17	Z17	X18	Y18	Z18	X19	Y19	Z19	X20	Y20	Z20	X21	Y21	Z21	X22	Y22	Z22	X23	Y23	Z23	X24	Y24	Z24	X25	Y25	Z25	X26	Y26	Z26	X27	Y27	Z27
228	2.27000000	-583.991760	1374.757446	187.217712	-583.816833	1363.675171	-208.866913	-639.472351	1434.755859	-19.053833	-487.197083	1334.458618	-3.169250	-761.239014	1100.294189	279.101105	-500.274353	1036.125000	-295.126678	-762.676636	849.073547	259.883232	-302.011215	900.408905	-323.189697	-552.671265	923.507935	143.885712	-571.973389	933.031494	-162.780106	-750.985962	945.643433	54.519810	-755.659058	952.337891	-43.681709	-753.322510	948.990662	5.419050	-741.174011	1160.530762	-2.890810	-434.972473	1143.245605	-3.836898	-513.846619	526.248535	217.291382	-467.264465	461.173523	153.082764	-425.400574	313.480377	204.828308	-388.667450	82.631699	140.316010	-437.258789	52.846050	78.645454	-256.904175	86.949959	105.099022	-621.613770	563.875366	-190.756531	-676.851135	439.642853	-135.174561	-720.701294	300.657288	-183.864807	-821.976013	96.373604	-117.663681	-886.863403	83.982025	-67.697800	-698.540405	41.529625	-76.237267
229	2.28000000	-575.922668	1373.360352	189.417496	-576.434387	1363.679199	-206.874527	-632.093567	1433.935059	-16.610128	-479.343719	1334.143066	-1.264224	-751.267029	1097.364258	280.783386	-493.147491	1036.550781	-295.084808	-751.986450	846.237366	261.821793	-293.133545	903.740143	-323.920532	-542.845886	922.667603	144.669449	-562.349792	932.220337	-161.795227	-741.497864	944.370911	55.679062	-746.287231	950.898926	-42.510975	-743.892548	947.634918	6.584044	-732.642090	1159.193848	-1.281960	-426.420654	1143.008545	-2.624416	-503.113373	526.465698	218.641251	-460.033813	459.570984	154.408859	-420.427399	311.137573	206.349335	-384.182709	80.927872	141.779343	-432.508728	51.655846	79.781464	-252.751114	84.078117	108.096779	-614.579773	562.993103	-190.137741	-671.350220	439.166962	-134.853607	-716.833252	300.657074	-183.857437	-821.012939	97.711891	-117.993660	-886.255920	86.119774	-68.144218	-698.228699	41.512630	-76.184723
230	2.29000000	-567.858521	1371.949097	191.678223	-568.932312	1363.747070	-204.836624	-624.660339	1433.169312	-14.146728	-471.449371	1333.893555	0.719596	-740.911987	1094.174805	282.477020	-486.384399	1036.941650	-295.040283	-740.688385	843.123505	263.877792	-284.699036	906.973419	-324.600403	-533.044617	921.971558	145.593781	-552.505981	931.460144	-160.613235	-731.967346	943.193359	56.855495	-736.822754	949.492676	-41.356140	-734.395050	946.343018	7.749678	-724.068481	1157.907349	0.290361	-417.801544	1142.865601	-1.248585	-491.080505	527.194885	220.056213	-452.510620	458.194519	155.713348	-415.428101	308.889252	207.703857	-380.919586	79.246635	142.989182	-429.171661	50.816460	80.712234	-249.871613	80.603294	110.529839	-607.084778	562.168762	-189.431198	-665.332214	438.725311	-134.543854	-712.682983	300.828094	-183.897186	-819.871765	99.296165	-118.360825	-885.481689	88.652573	-68.648613	-697.819336	41.500042	-76.129280
231	2.30000000	-559.808960	1370.549316	193.979843	-561.302979	1363.887573	-202.766891	-617.167297	1432.472290	-11.685062	-463.515198	1333.719727	2.770312	-730.173157	1090.765991	284.171570	-479.983521	1037.300659	-294.977020	-728.790771	839.773468	266.028908	-276.718582	910.091370	-325.208511	-523.291992	921.445740	146.676117	-542.474792	930.783936	-159.227005	-722.408569	942.127686	58.049625	-727.278198	948.135681	-40.216553	-724.843384	945.131683	8.916536	-715.459290	1156.688599	1.818028	-409.121674	1142.834106	0.296608	-478.441986	528.237183	221.493469	-444.726685	457.053467	156.986282	-410.190063	306.845245	208.862030	-378.549774	77.649643	143.940598	-426.929352	50.331413	81.455147	-247.866791	76.759918	112.288666	-599.062744	561.451355	-188.650970	-658.667480	438.339783	-134.255844	-708.162903	301.237640	-183.989944	-818.477478	101.203529	-118.753571	-884.432129	91.699951	-69.193336	-697.300049	41.479527	-76.068016
232	2.31000000	-551.783203	1369.186401	196.300354	-553.542419	1364.105469	-200.680099	-609.610718	1431.855225	-9.247278	-455.543121	1333.629150	4.873865	-719.054749	1087.184448	285.860138	-473.939209	1037.629517	-294.877686	-716.299652	836.237396	268.253075	-269.208069	913.076752	-325.719833	-513.609924	921.110352	147.930054	-532.294128	930.219604	-157.633789	-712.836243	941.187561	59.263325	-717.667969	946.842346	-39.089352	-715.252106	944.014954	10.086987	-706.821106	1155.553345	3.294527	-400.388275	1142.927734	2.012979	-465.878815	529.404419	222.920975	-436.727173	456.149323	158.220001	-404.558685	305.097656	209.807251	-376.770721	76.195518	144.642563	-425.478058	50.184799	82.037277	-246.380325	72.797951	113.311790	-590.438110	560.885254	-187.825333	-651.207886	438.023895	-134.001831	-703.152588	301.940155	-184.138229	-816.736084	103.517311	-119.156784	-882.965332	95.388199	-69.751122	-696.670837	41.428253	-75.998581
233	2.32000000	-543.789429	1367.884644	198.616440	-545.650513	1364.401489	-198.591827	-601.988464	1431.326416	-6.855703	-447.535583	1333.625854	7.014245	-707.566772	1083.481812	287.539764	-468.242065	1037.928467	-294.724121	-703.219238	832.572571	270.528847	-262.182327	915.907532	-326.106430	-504.017120	920.978394	149.364319	-522.004333	929.787537	-155.835556	-703.264832	940.383057	60.499645	-708.008423	945.624451	-37.969513	-705.636627	943.003754	11.265066	-698.160706	1154.514282	4.715171	-391.609497	1143.154907	3.897554	-453.931396	530.536255	224.316849	-428.568329	455.473969	159.409836	-398.453156	303.702332	210.535248	-375.332428	74.928886	145.114655	-424.554352	50.337719	82.491051	-245.141006	68.944359	113.590347	-581.119934	560.500793	-186.993103	-642.792358	437.779541	-133.793930	-697.507263	302.974304	-184.341202	-814.533997	106.323021	-119.553497	-880.908020	99.842903	-70.286728	-695.946472	41.314468	-75.919975
